<svg id="Layer_1" data-name="Layer 1" xmlns="http://www.w3.org/2000/svg" viewBox="0 0 667.29 1000"><defs><style>.cls-1{fill:#c31d1d;}.cls-2{fill:#211615;}.cls-3{fill:#e1feff;opacity:0.64;}.cls-4{fill:#fff;}</style></defs><polygon class="cls-1" points="646.88 345.34 646.88 989.32 487.19 989.32 259.55 709.28 259.55 989.32 67.48 989.32 67.48 345.34 227.54 345.34 454.82 642.68 454.82 345.34 646.88 345.34"/><path class="cls-2" d="M363.84,432.56c-16,7.33-51.52,17.95-69.25,20.62C188.38,454.78,46.94,500.79,5.86,528.6l14.63,49.14,19.33,11.77s39,107.57,102.83,115.78,144.07-25.37,162.12-64.95S328,597.58,328.8,521c0,0,2-18.33,16.27-24.94,15.49-2.24,27.23,12,27.23,12,42.61,63.64,48.69,63.5,85.45,86.75s122.3,7.43,171.24-34.31S651.73,407.3,651.73,407.3l9.7-20.41L646.8,337.75C594.67,336.89,450.27,377.94,363.84,432.56ZM297,608.45c-11,51.48-68.19,77.3-128.6,80.38S64.68,617.16,67.36,567.3s80.77-64.38,132.43-76.25S277,497,277,497C299.7,508.61,308,557,297,608.45ZM598.4,560.8c-52.3,30.48-114.3,40.16-151.62,3.06s-56.89-82.1-44.2-104.27c0,0,11.54-28.85,61.33-47.19s123-48.94,152.57-8.62S650.65,530.32,598.4,560.8Z"/><path class="cls-3" d="M297,608.45c-11,51.48-68.19,77.3-128.6,80.38a69.91,69.91,0,0,1-7.8-.05c-15.57-.93-29.86-6.93-42.27-16.25-32.69-24.28-52.84-70.72-51-105.23,2.66-49.91,80.77-64.38,132.43-76.25a153.16,153.16,0,0,1,18.53-3.19c23-2.63,39.19,1,48.63,4.42A44.55,44.55,0,0,1,277,497C299.7,508.61,308,557,297,608.45Z"/><path class="cls-3" d="M598.4,560.8c-28,16.31-58.71,26.65-86.94,27.07-16.4.28-32-2.83-45.64-10a79.86,79.86,0,0,1-19-14c-37.36-37.09-56.89-82.1-44.2-104.27,0,0,11.54-28.85,61.33-47.19,31.85-11.72,73.32-28.48,106.81-28.48,17,0,31.93,4.36,42.49,15.9a47.46,47.46,0,0,1,3.27,4C646,444.06,650.65,530.32,598.4,560.8Z"/><path class="cls-4" d="M267,492.28,160.63,688.78c-15.57-.93-29.86-6.93-42.27-16.25l100-184.67C241.34,485.23,257.51,488.82,267,492.28Z"/><path class="cls-4" d="M613.21,399.82,511.46,587.87c-16.4.28-32-2.83-45.64-10l104.9-193.93C587.73,383.94,602.65,388.28,613.21,399.82Z"/><path class="cls-1" d="M353.47,10.68A24.63,24.63,0,0,0,328.9,35.25V225.39a24.57,24.57,0,1,0,49.14,0V35.25A24.64,24.64,0,0,0,353.47,10.68Z"/><path class="cls-1" d="M581.36,73.59a24.66,24.66,0,0,0-34.75,0L412.16,208a24.66,24.66,0,0,0,0,34.75h0a24.64,24.64,0,0,0,34.75,0L581.36,108.34A24.64,24.64,0,0,0,581.36,73.59Z"/><path class="cls-1" d="M167.75,73.59A24.57,24.57,0,0,0,133,108.34L267.45,242.79a24.64,24.64,0,0,0,34.75,0h0a24.64,24.64,0,0,0,0-34.75Z"/></svg>