<svg id="Layer_1" data-name="Layer 1" xmlns="http://www.w3.org/2000/svg" viewBox="0 0 644.32 1000"><defs><style>.cls-1{fill:#fff;}</style></defs><path class="cls-1" d="M282.74,437.36c-70.53,1.27-156.87,21.9-219.15,44.24V349.75H219.08l66.58,87.1C284.63,437.05,283.66,437.22,282.74,437.36Z"/><path class="cls-1" d="M502.57,349.75c-20.49,6.33-41.73,13.72-62.7,22v-22Z"/><path class="cls-1" d="M626.47,565.87V975.39H471.32L250.19,703.32V975.39H63.59V669.94c18.29,22.86,42.07,42.83,70.84,46.54a169.84,169.84,0,0,0,21.89,1.37c64.07,0,134.49-32.82,153.43-74.37,1.65-3.65,3.2-7,4.64-10,15.33-33,19.45-44.58,20.24-111.67.31-1.61,1.48-5.8,3.75-8.35a19.55,19.55,0,0,1,7.7,4.92c23.44,35,36,50.93,49.8,62.72l44,57.57V610.14c45.13,22.1,129.92,4.71,180.38-38.32A79.86,79.86,0,0,0,626.47,565.87Z"/><path class="cls-1" d="M351.49,434.48c-15.55,7.12-50,17.44-67.27,20C181,456.07,43.62,500.77,3.72,527.79l14.21,47.73L36.7,587s37.9,104.5,99.91,112.49,140-24.65,157.5-63.1,22.51-41.55,23.34-116c0,0,2-17.8,15.81-24.23,15.05-2.17,26.45,11.65,26.45,11.65,41.4,61.83,47.31,61.69,83,84.28s118.82,7.22,166.36-33.34,22.1-148.81,22.1-148.81l9.42-19.83-14.22-47.73C575.75,341.53,435.47,381.41,351.49,434.48Zm-64.9,170.88c-10.67,50-66.24,75.1-124.94,78.09S60.85,613.83,63.46,565.38s78.47-62.55,128.66-74.08,75,5.79,75,5.79C289.18,508.37,297.22,555.35,286.59,605.36Zm292.78-46.29c-50.8,29.61-111,39-147.3,3s-55.27-79.77-42.94-101.3c0,0,11.22-28,59.59-45.84S568.25,367.35,597,406.52,630.14,529.46,579.37,559.07Z"/><path class="cls-1" d="M341.42,24.61a23.94,23.94,0,0,0-23.87,23.87V233.21a23.87,23.87,0,0,0,47.74,0V48.48A23.94,23.94,0,0,0,341.42,24.61Z"/><path class="cls-1" d="M562.82,85.74a23.93,23.93,0,0,0-33.76,0L398.44,216.36a24,24,0,0,0,0,33.76h0a24,24,0,0,0,33.76,0L562.82,119.5A23.93,23.93,0,0,0,562.82,85.74Z"/><path class="cls-1" d="M161,85.74a23.87,23.87,0,0,0-33.76,33.76L257.85,250.12a24,24,0,0,0,33.76,0h0a23.93,23.93,0,0,0,0-33.76Z"/></svg>